<svg width="175" height="118" viewBox="0 0 175 118" fill="none" xmlns="http://www.w3.org/2000/svg">
<path d="M14.2764 115.406C7.07797 103.436 -3.91103 89.7047 8.33195 77.4617C14.1495 71.6441 27.4963 72.2194 33.7764 76.4061C38.9857 79.879 46.6872 82.3216 46.8319 89.8506C46.9457 95.7644 43.3697 101.09 37.2764 102.184C19.9726 105.29 22.3005 82.4341 29.2764 74.4617C38.7979 63.5799 77.6211 67.0148 81.1097 83.295C84.1009 97.2537 67.8981 95.947 64.0542 85.1839C58.6469 70.0434 63.0974 61.5577 80.4986 57.6284C94.0856 54.5603 108.305 66.052 112.721 77.4061C113.638 79.7642 122.636 91.8035 120.721 92.3506C101.826 97.749 96.9016 66.0153 106.332 55.4061C117.167 43.2164 128.27 31.0063 144.499 28.1839C153.226 26.6662 179.532 29.7528 171.054 27.1839C160.445 23.9691 146.406 18.6571 139.332 9.40613C137.227 6.6534 130.292 -1.97453 137.276 5.96169C144.469 14.135 150.614 21.502 158.776 27.8506C160.593 29.2634 164.874 28.3153 167.054 28.4061C168.9 28.4831 163.746 33.2023 163.276 33.8506C159.22 39.4479 158.371 46.2142 158.276 52.9617C158.192 58.9842 159.957 66.9526 156.276 69.4061" stroke="black" stroke-width="4" stroke-linecap="round" stroke-linejoin="round"/>
</svg>
